<?xml version="1.0" encoding="UTF-8" standalone="no"?>
<svg
   width="2400"
   height="2100"
   viewBox="0 0 2400 2100"
   version="1.1"
   id="svg8"
   sodipodi:docname="path_editor.svg"
   inkscape:version="1.4 (86a8ad7, 2024-10-11)"
   xmlns:inkscape="http://www.inkscape.org/namespaces/inkscape"
   xmlns:sodipodi="http://sodipodi.sourceforge.net/DTD/sodipodi-0.dtd"
   xmlns="http://www.w3.org/2000/svg"
   xmlns:svg="http://www.w3.org/2000/svg">
  <defs
     id="defs8" />
  <sodipodi:namedview
     id="namedview8"
     pagecolor="#ffffff"
     bordercolor="#666666"
     borderopacity="1.0"
     inkscape:showpageshadow="2"
     inkscape:pageopacity="0.0"
     inkscape:pagecheckerboard="0"
     inkscape:deskcolor="#d1d1d1"
     inkscape:zoom="0.40142857"
     inkscape:cx="1199.4662"
     inkscape:cy="850.71174"
     inkscape:window-width="1920"
     inkscape:window-height="1057"
     inkscape:window-x="-8"
     inkscape:window-y="-8"
     inkscape:window-maximized="1"
     inkscape:current-layer="svg8" />
  <!-- ===== REFERENCE LAYER: Island outline ===== -->
  <path
     d="M390,700 Q365,510 460,390 Q565,290 715,258 Q860,228 960,212 Q1060,202 1210,220        Q1360,202 1510,245 Q1660,285 1785,355 Q1900,425 1980,553 Q2015,645 1998,772        Q1978,892 1898,992 Q1798,1092 1648,1145 Q1498,1192 1348,1205        Q1198,1215 1048,1195 Q898,1175 748,1115 Q598,1055 480,945        Q402,858 385,730 Q378,708 390,700 Z"
     fill="#3a8a3a"
     stroke="#2d5a27"
     stroke-width="2"
     opacity="0.3"
     id="path1" />
  <!-- ===== REFERENCE: SE Beach area ===== -->
  <path
     d="M1640,1130 Q1730,1095 1830,1010 Q1910,935 1960,850 Q1985,790 1990,760        Q2005,800 1975,880 Q1935,960 1855,1035 Q1765,1110 1680,1145        Q1645,1160 1640,1130 Z"
     fill="#e8d5a3"
     opacity="0.4"
     id="path2" />
  <!-- ===== REFERENCE: Existing paths (grey) ===== -->
  <!-- Town→Cove -->
  <path
     d="M1260,720 Q1400,732 1530,748 Q1640,760 1730,770"
     fill="none"
     stroke="#888"
     stroke-width="16"
     stroke-linecap="round"
     opacity="0.3"
     id="path3" />
  <!-- Workshop→Cove -->
  <path
     d="M1400,960 Q1500,910 1580,870 Q1650,830 1720,780"
     fill="none"
     stroke="#888"
     stroke-width="16"
     stroke-linecap="round"
     opacity="0.3"
     id="path4" />
  <!-- Cove→Beach -->
  <path
     d="M1770,780 Q1790,850 1820,930 Q1850,1010 1875,1080 Q1890,1120 1905,1148"
     fill="none"
     stroke="#888"
     stroke-width="16"
     stroke-linecap="round"
     opacity="0.3"
     id="path5" />
  <!-- ===== LOCATION MARKERS ===== -->
  <!-- Workshop (1320, 1410) -->
  <circle
     cx="1394.7332"
     cy="969.07471"
     r="30"
     fill="#cc3333"
     opacity="0.8"
     id="circle5" />
  <text
     x="1320"
     y="1415"
     text-anchor="middle"
     fill="white"
     font-size="20"
     font-family="sans-serif"
     id="text5">W</text>
  <!-- Scramble Shores (1850, 1600) -->
  <circle
     cx="1889.8577"
     cy="1139.146"
     r="30"
     fill="#3388cc"
     opacity="0.8"
     id="circle6" />
  <text
     x="1850"
     y="1605"
     text-anchor="middle"
     fill="white"
     font-size="20"
     font-family="sans-serif"
     id="text6">B</text>
  <!-- Town Square (approx 1190, 690) -->
  <circle
     cx="1190"
     cy="690"
     r="20"
     fill="#888"
     opacity="0.5"
     id="circle7" />
  <text
     x="1190"
     y="695"
     text-anchor="middle"
     fill="white"
     font-size="14"
     font-family="sans-serif"
     id="text7">T</text>
  <!-- Cluey Cove (1720, 1210) -->
  <circle
     cx="1720"
     cy="1210"
     r="20"
     fill="#888"
     opacity="0.5"
     id="circle8" />
  <text
     x="1720"
     y="1215"
     text-anchor="middle"
     fill="white"
     font-size="14"
     font-family="sans-serif"
     id="text8">C</text>
  <!-- ================================================================ -->
  <!-- EDIT THIS PATH: Workshop → Beach                                 -->
  <!-- This is the path you need to drag into position.                 -->
  <!-- It should follow the SE coastline from Workshop to Beach.        -->
  <!-- When done, copy the d="" attribute back into index.html          -->
  <!-- and replace all 3 copies (border, fill, center track)            -->
  <!-- ================================================================ -->
  <path
     id="WORKSHOP_TO_BEACH"
     d="m 1419.8577,979.07473 q 120,39.99997 240,79.99997 120,40 220,80"
     fill="none"
     stroke="#ff0000"
     stroke-width="16"
     stroke-linecap="round"
     opacity="0.9" />
</svg>
